<svg version="1.2" xmlns="http://www.w3.org/2000/svg" viewBox="0 0 512 512" width="512" height="512"><style>.a{fill:#fff}</style><path  d="m8.9 34.9c0-11.1 9-20 20-20h455.2c11 0 20 8.9 20 20v442.2c0 11.1-9 20-20 20h-455.2c-11 0-20-8.9-20-20z"/><path  d="m175 202.5c0-0.3 0.2-0.5 0.5-0.5h1c0.3 0 0.5 0.2 0.5 0.5 0 0.3-0.2 0.5-0.5 0.5h-1c-0.3 0-0.5-0.2-0.5-0.5z"/><path class="a" d="m52 71c0-11 9-20 20-20h381c11 0 20 9 20 20v370c0 11-9 20-20 20h-381c-11 0-20-9-20-20z"/><path  d="m387.4 252.6q0 47.3-17.6 78.7-17.6 31.3-49.7 47.1-31.9 15.6-75.2 15.6h-87.7v-271.3h93.9q43.8 0 74.2 15.1 30.4 15 46.2 43.9 15.9 29 15.9 70.9zm-76 2.6q0-24.7-6.7-40.8-6.5-16.3-19.7-24.3-13.2-8.2-33.2-8.2h-21.3v152h16.3q33.4 0 49-19.3 15.6-19.5 15.6-59.4zm66-2.6q0 47.3-17.6 78.7-17.6 31.3-49.7 47.1-31.9 15.6-75.2 15.6h-87.7v-271.3h93.8q43.8 0 74.3 15.1 30.4 15 46.2 43.9 15.9 29 15.9 70.9zm-76.1 2.6q0-24.7-6.6-40.8-6.5-16.3-19.7-24.3-13.2-8.2-33.2-8.2h-21.3v152h16.3q33.4 0 49-19.3 15.5-19.5 15.5-59.4z"/><path class="a" d="m314 279.1q21.7 0 33.7 7.3 12.1 7.3 12.1 20.6 0 9.1-5.8 16-5.6 6.8-17.9 11.8 15.2 7.2 21.4 14.4 6.3 7.1 6.3 15.4 0 15.2-13.2 23.6-13.2 8.4-37 8.4-24.2 0-37-8.2-12.8-8.2-12.8-23.5 0-9.9 5.7-16.9 5.7-7 19.2-12.7-10.9-6.1-15.9-13-5-7.1-5-15.4 0-13.2 12.3-20.4 12.3-7.4 33.9-7.4zm-16.3 84.6q0 4.8 4.1 7.8 4.1 2.9 11.5 2.9 16.5 0 16.5-10.1 0-3.8-3.7-7.5-3.6-3.8-12.8-8.4-8.4 3.7-12 7.5-3.6 3.6-3.6 7.8zm16.1-62.3q-4.8 0-8 2.3-3.3 2.3-3.3 6 0 6.7 10.9 11.9 6.7-3.2 9.1-5.9 2.5-2.7 2.5-6 0-3.8-3.3-6-3.3-2.3-7.9-2.3zm-4.9-22.3q21.7 0 33.7 7.3 12.1 7.3 12.1 20.6 0 9.1-5.7 16-5.6 6.8-17.9 11.8 15.2 7.2 21.3 14.4 6.3 7.1 6.3 15.4 0 15.2-13.2 23.6-13.2 8.4-36.9 8.4-24.2 0-37.1-8.2-12.8-8.2-12.8-23.5 0-9.9 5.7-16.9 5.7-7 19.2-12.7-10.8-6.1-15.9-13-5-7.1-5-15.4 0-13.2 12.3-20.4 12.3-7.4 33.9-7.4zm-16.3 84.6q0 4.8 4.2 7.8 4.1 2.9 11.4 2.9 16.5 0 16.5-10.1 0-3.8-3.7-7.5-3.5-3.8-12.8-8.4-8.3 3.7-12 7.5-3.6 3.6-3.6 7.8zm16.2-62.3q-4.8 0-8.1 2.3-3.3 2.3-3.3 6 0 6.7 11 11.9 6.6-3.2 9.1-5.9 2.4-2.7 2.4-6 0-3.8-3.3-6-3.2-2.3-7.8-2.3z"/></svg>