<?xml version="1.0" encoding="utf-8"?>
<!-- Generator: Adobe Illustrator 24.0.1, SVG Export Plug-In . SVG Version: 6.00 Build 0)  -->
<svg version="1.1" id="Layer_1" xmlns="http://www.w3.org/2000/svg" xmlns:xlink="http://www.w3.org/1999/xlink" x="0px" y="0px"
	 viewBox="0 0 327.9 104.6" style="enable-background:new 0 0 327.9 104.6;" xml:space="preserve">
<style type="text/css">
	.st0{display:none;}
	.st1{display:inline;fill:#FFFFFF;}
	.st2{display:inline;}
	.st3{fill:#FFFFFF;}
	.st4{enable-background:new    ;}
</style>
<g class="st0">
	<path class="st1" d="M20.5,65.4c0.7,1.3,2.1,1.6,3.3,0.7l20.5-15.3c1.1-0.8,1.3-2.4,0.2-3.4L30.1,33.1c-1-1-3-2.1-4.4-2.4L4.4,26
		c1.1,4.4,1.9,9,2.4,13.6L20.5,65.4z"/>
	<path class="st1" d="M9.9,74.1l-4.3-0.8C5,76,4.4,78.6,3.7,81.1l6.6-4.9C11.5,75.3,11.3,74.4,9.9,74.1z"/>
	<path class="st1" d="M16,68L7.6,52c0,5.4-0.4,10.9-1.1,16.2l8.3,1.5C16.1,70,16.7,69.2,16,68z"/>
	<path class="st1" d="M22.3,25.2L2.8,5.7c-2.4,4-2.5,10,0.6,16.8l18.1,3.9C23,26.8,23.3,26.2,22.3,25.2z"/>
	<path class="st1" d="M35.9,29.6l26.2,5.7c1.4,0.3,3.5-0.1,4.6-1l0.9-0.7C53.4,22.7,39.1,12.8,23.3,4.1c-6.8-4-12.8-4.2-16.8-2
		l25.1,25.1C32.6,28.2,34.6,29.3,35.9,29.6z"/>
	<path class="st1" d="M58.7,37.8l-18.5-4c-1.4-0.3-1.7,0.3-0.7,1.3l9.3,9.3c1,1,2.8,1.1,3.9,0.3l6.4-4.8
		C60.3,39.1,60.1,38.1,58.7,37.8z"/>
	<path class="st1" d="M28.1,79.6l7.4,13.8C41.3,89.8,47,86,52.6,82l-23.2-4.3C28,77.5,27.4,78.3,28.1,79.6z"/>
	<path class="st1" d="M51.9,54.9c-1-1-2.8-1.1-3.9-0.3L27.1,70.1c-1.1,0.8-0.9,1.8,0.5,2l30.9,5.7c3.2-2.3,6.3-4.7,9.4-7.1
		L51.9,54.9z"/>
	<path class="st1" d="M65.8,41.4l-9.5,7c-1.1,0.8-1.3,2.4-0.2,3.4L72,67.7c10-7.4,11.3-17.5,4.8-25.9l-6.4-1.4
		C69,40.1,67,40.5,65.8,41.4z"/>
	<path class="st1" d="M19.9,76c-0.3-0.1-1.4,0.6-2.6,1.4l-16.1,12c-1.6,12.2,8.5,19.1,22.1,11.1c2.6-1.4,5.2-2.9,7.7-4.4l-9.4-17.7
		C20.9,77.1,20.1,76,19.9,76z"/>
	<g class="st2">
		<path class="st3" d="M151.2,47.7h9.6v18.8c-5.2,3.8-13.1,6.4-19.9,6.4c-14.8,0-26.1-10.8-26.1-25c0-14.1,11.5-24.9,26.7-24.9
			c7.3,0,14.7,2.8,19.7,7.1L155,38c-3.6-3.4-8.7-5.5-13.4-5.5c-8.7,0-15.4,6.7-15.4,15.3c0,8.7,6.8,15.3,15.5,15.3
			c2.9,0,6.4-1,9.6-2.7V47.7H151.2z"/>
		<path class="st3" d="M219.6,47.9c0,14.1-11.3,25-26.3,25S167,62.1,167,47.9c0-14.3,11.3-24.9,26.3-24.9S219.6,33.7,219.6,47.9z
			 M178.3,47.9c0,8.6,6.9,15.3,15.1,15.3c8.2,0,14.8-6.7,14.8-15.3s-6.7-15.2-14.8-15.2C185.1,32.8,178.3,39.3,178.3,47.9z"/>
		<path class="st3" d="M258.5,47.7h9.6v18.8c-5.2,3.8-13.1,6.4-19.9,6.4c-14.8,0-26.1-10.8-26.1-25c0-14.1,11.5-24.9,26.7-24.9
			c7.3,0,14.7,2.8,19.7,7.1l-6.2,7.9c-3.6-3.4-8.7-5.5-13.4-5.5c-8.7,0-15.4,6.7-15.4,15.3c0,8.7,6.8,15.3,15.5,15.3
			c2.9,0,6.4-1,9.6-2.7V47.7H258.5z"/>
		<path class="st3" d="M326.9,47.9c0,14.1-11.3,25-26.3,25s-26.3-10.8-26.3-25c0-14.3,11.3-24.9,26.3-24.9S326.9,33.7,326.9,47.9z
			 M285.6,47.9c0,8.6,6.9,15.3,15.1,15.3s14.8-6.7,14.8-15.3s-6.7-15.2-14.8-15.2C292.4,32.8,285.6,39.3,285.6,47.9z"/>
	</g>
</g>
<g class="st4">
	<g id="XMLID_1_">
		<path class="st3" d="M294.3,81.6c-1,0.5-2.3,0.8-3.8,0.8c-1.1,0-2.4-0.2-3.7-0.6v-2.5c1.1,0.3,2.4,0.5,3.7,0.5
			c1,0,1.9-0.2,2.6-0.7c0.8-0.5,1.5-1.2,2.1-2.2c0.6-1,1.3-2.5,2.1-4.7c0.8-2.1,1.3-3.5,1.6-4.2l-12.2-31.8h3l6.7,17.9
			c2.1,5.5,3.4,9.2,3.9,11.1h0.2c0.8-2.5,2.1-6.3,4-11.3l6.7-17.7h3l-14.3,37c-1.2,3-2.1,5-2.9,6.1
			C296.2,80.3,295.3,81.1,294.3,81.6z"/>
		<rect x="278.4" y="22.4" class="st3" width="2.9" height="45.6"/>
		<path class="st3" d="M267.7,25.2c0.3,0.5,0.5,1.2,0.5,2.1c0,0.9-0.2,1.6-0.5,2.1c-0.3,0.5-0.8,0.8-1.4,0.8c-1.2,0-1.9-0.9-1.9-2.8
			c0-1.9,0.6-2.8,1.9-2.8C266.9,24.5,267.4,24.7,267.7,25.2z"/>
		<rect x="264.9" y="36.1" class="st3" width="2.9" height="31.8"/>
		<rect x="251.3" y="22.4" class="st3" width="2.9" height="45.6"/>
		<path class="st3" d="M239.6,66c1.8,0,3.4-0.2,4.8-0.5v2.4c-1.4,0.5-3,0.7-4.9,0.7c-2.8,0-4.9-0.8-6.2-2.3c-1.3-1.5-2-3.9-2-7.1
			V38.7h-4.7V37l4.7-1.3l1.5-7.2h1.5v7.7h9.4v2.5h-9.4v20.2c0,2.4,0.4,4.3,1.3,5.4C236.4,65.4,237.8,66,239.6,66z"/>
		<path class="st3" d="M202.9,41.1c-1.9,2-2.9,4.9-3.3,8.8h19.7c0-3.7-0.8-6.6-2.4-8.7c-1.6-2.1-3.8-3.1-6.6-3.1
			C207.2,38.1,204.7,39.1,202.9,41.1z M202.5,62.5c2,2.3,4.9,3.5,8.6,3.5c1.8,0,3.4-0.1,4.8-0.4c1.4-0.3,3.1-0.8,5.2-1.6v2.6
			c-1.8,0.8-3.5,1.3-5,1.6c-1.5,0.3-3.2,0.4-5,0.4c-4.6,0-8.2-1.4-10.8-4.3c-2.6-2.9-3.9-6.8-3.9-12c0-5.1,1.3-9.2,3.8-12.2
			c2.5-3.1,5.9-4.6,10.1-4.6c3.8,0,6.7,1.3,8.9,3.9c2.2,2.6,3.3,6.2,3.3,10.7v2.3h-22.9C199.5,56.8,200.5,60.2,202.5,62.5z"/>
		<path class="st3" d="M186.4,49.9c0-3.7-0.8-6.6-2.4-8.7c-1.6-2.1-3.8-3.1-6.7-3.1c-3.1,0-5.5,1-7.4,3c-1.9,2-2.9,4.9-3.3,8.8
			H186.4z M186.2,39.5c2.2,2.6,3.3,6.2,3.3,10.7v2.3h-22.9c0,4.4,1.1,7.7,3.1,10c2,2.3,4.9,3.5,8.6,3.5c1.8,0,3.4-0.1,4.8-0.4
			c1.4-0.3,3.1-0.8,5.2-1.6v2.6c-1.8,0.8-3.5,1.3-5,1.6c-1.5,0.3-3.2,0.4-5,0.4c-4.6,0-8.2-1.4-10.8-4.3c-2.6-2.9-3.9-6.8-3.9-12
			c0-5.1,1.3-9.2,3.8-12.2c2.5-3.1,5.9-4.6,10.1-4.6C181.1,35.5,184.1,36.8,186.2,39.5z"/>
		<path class="st3" d="M151.3,28.5h-0.2L135,68h-1.9l-16-39.6h-0.2c0.2,2.4,0.2,4.9,0.2,7.4V68h-2.9V25.1h4.6l15.2,37.7h0.2
			l15.2-37.7h4.5V68h-3V35.5C150.9,33.3,151.1,30.9,151.3,28.5z"/>
		<path class="st3" d="M96,57c0.3-2.5,1.2-4.8,1.3-7.4c0.2-3.7-0.9-7.1-1.8-10.6c1.5,2,1.7,4.4,2,6.7C98.1,49.6,97.7,53.4,96,57z"/>
		<path class="st3" d="M95.6,39c0.6-0.3,0.6-0.3,0.8,0.2c1,2.7,1.6,5.4,1.8,8.2c0.1,2.1,0,4.2-0.6,6.3c-0.4,1.5-0.8,2.9-1.4,4.4
			c0-0.3-0.1-0.7-0.1-1c0,0,0,0,0,0c1.7-3.6,2.1-7.5,1.6-11.3C97.2,43.4,97,41,95.6,39C95.6,39,95.6,39,95.6,39z"/>
		<path class="st3" d="M96.1,58c0.7-1.5,1.1-2.9,1.4-4.4c0.5-2.1,0.7-4.2,0.6-6.3l1.5-0.1c0.6,8.6-1.9,16.6-7.5,23.8
			c-2.2,2.9-4.3,6.3-8.3,7.5c-0.5,0.1-0.8,0.4-1.5,0c3.2-2.9,5.7-6.2,8.2-9.7c2.3-3.2,3.6-6.7,4.8-10.2c0.2-0.5,0.4-1,0.6-1.5l0,0
			C96,57.4,96.1,57.7,96.1,58z"/>
		<path class="st3" d="M81.4,49.7c-0.1,0-0.2,0-0.3,0c0,0-0.1,0-0.1,0C81.1,49.7,81.2,49.7,81.4,49.7z"/>
		<path class="st3" d="M80.9,49.7C81,49.7,81,49.7,80.9,49.7c-0.9,0-2.1,0-3.4,0C78.8,49.7,80,49.7,80.9,49.7z"/>
		<path class="st3" d="M77.6,49.7c-1.4,0-3,0-4.6,0C74.6,49.7,76.1,49.7,77.6,49.7z"/>
		<path class="st3" d="M73,49.7c-0.7,0-1.5,0-2.2,0.1c0.1-0.1,0.3-0.1,0.5-0.1C71.8,49.7,72.4,49.7,73,49.7z"/>
		<path class="st3" d="M73,49.7c1.6,0,3.2,0,4.6,0c1.3,0,2.4,0,3.4,0c0.9,0,1.7,0.1,2.6,0.2c-3.8,0-7.6,0-11.4,0
			c-0.8,0-1.5,0.1-1.8,0.9c-0.1-0.5,0-0.9,0.4-1C71.5,49.8,72.2,49.8,73,49.7z"/>
		<path class="st3" d="M70.8,49.5c3.4,0,6.8,0,10.2,0.2c-1,0-2.1,0-3.4,0c-1.4,0-3,0-4.6,0c-0.6,0-1.2,0-1.8,0c-0.2,0-0.3,0-0.5,0.1
			c-0.7,0-1.3,0.1-2,0.1C69.3,49.3,70.1,49.5,70.8,49.5z"/>
		<path class="st3" d="M70.7,49.8c-0.4,0.1-0.5,0.5-0.4,1v0l0,0c-0.5-0.3-1.1-0.6-1.6-0.9C69.4,49.9,70.1,49.8,70.7,49.8z"/>
		<path class="st3" d="M37.9,63.4C39.5,70.4,44,75.3,50,78.9c3.6,2.2,7.7,3.2,11.8,4.1c1.5,0.3,2.9-0.2,4.3-0.7
			c3.7-1.2,6.6-3.8,9-6.5c5.7-6.7,8.7-14.5,9-23.3c0-0.2-0.1-0.4-0.1-0.7c-4.9,3.4-9.3,1.7-13.6-1v0c0.3-0.8,1-0.9,1.8-0.9
			c3.8,0,7.6,0,11.4,0c-0.9-0.1-1.7-0.2-2.6-0.2c0.1,0,0.2,0,0.3,0c-0.1,0-0.3,0-0.4,0c-3.4-0.2-6.8-0.2-10.2-0.2
			c-0.7,0-1.4-0.2-2,0.4c-0.3-0.7-0.3-0.7,0.3-0.7c3,0,6,0,9,0c0.6,0,1.3,0,1.9,0c4.6,0,4.6,0,5.1-4.5c0.1-1.3,0.3-2.5,0.5-3.8
			c0.2-1.3,0.4-2.5,0.6-3.9c1,1.4,0.6,2.9,0.9,4.3c2.5,11.9-0.3,22.8-6.3,33c-2.8,4.8-6.9,8.3-11.8,10.9c-4,2.1-8.1,2.5-12.3,1
			c-6.2-2.2-11.8-5.6-16.4-10.2c-2.1-2.1-3.2-5-3.6-8c-0.6-3.8-0.5-7.6-0.1-11.4C36.8,58.9,37.4,61.1,37.9,63.4z"/>
		<path class="st3" d="M48.9,85.8c-0.6,0.9-1.5,0.5-2.3,0.6c0,0,0.1-0.1,0.1-0.1c0.1-0.1,0.3-0.1,0.4-0.3
			C47.7,86,48.2,85.2,48.9,85.8z"/>
		<path class="st3" d="M47.1,86L47.1,86c-0.1,0.2-0.2,0.2-0.4,0.3C46.8,86.2,47,86.1,47.1,86z"/>
		<path class="st3" d="M36.7,76.3c0.4,0.1,0.7,0.5,0.5,0.7c-0.5,0.4-1,0.1-1.4-0.3C36.3,76.8,36.7,77.1,36.7,76.3z"/>
		<path class="st3" d="M36.7,76.3L36.7,76.3c0,0.8-0.5,0.5-0.9,0.4C36.1,76.6,36.4,76.4,36.7,76.3z"/>
		<path class="st3" d="M33.6,87.7c1,0,1.9,0,2.9,0C35.5,88,34.6,88,33.6,87.7z"/>
		<path class="st3" d="M33.6,87.7c1,0.2,1.9,0.2,2.9,0C35.5,88.2,34.6,88.2,33.6,87.7z"/>
		<path class="st3" d="M39.6,52.6c-3.1,1.7-5.5,4.2-7.1,7.3c-0.1,0.2-0.3,0.5-0.5,0.7c0,0,0,0,0,0c0,0,0,0,0,0
			c-0.1-0.5-0.2-0.9-0.6-0.1c-0.4,0.8-0.3,1.9-1.2,2.5c-0.9-1.1,0.8-2.3-0.4-3.3c1.7-5.4,5.9-8.5,10.3-11.4c2.4-1.6,5-2.9,7.6-4.3
			c8.5-4.5,17.7-7.3,26.5-11c2.7-1.1,5.4-2.1,7.9-3.5c3.5-1.9,4.7-3.7,5.5-7.8c3.8,6.1,9.1,11.1,10.9,18.3c0.6,2.4,1,4.8,1.1,7.2
			l-1.5,0.1c-0.1-2.8-0.8-5.5-1.8-8.2c-0.2-0.5-0.2-0.5-0.8-0.2c0,0,0,0,0,0c0,0,0,0,0,0c-1.6-3.9-3.9-7.4-6.3-10.9
			c-0.9-1.4-1.5-1.3-2.1,0c-1,2-2.7,3.1-4.7,4C69.9,37.5,57.3,42.9,45,48.7c-0.7,0.3-1.6,0.3-1.8,1.2c2.7,0,5.5,0,8.2,0
			c0.6,0,1.1,0,1.7-0.1c0.5,0,1.1-0.2,1.2,0.5c0.1,0.5-0.3,0.7-0.7,1c-2.3,1.5-4.7,2.2-7.4,1.9C44,53,41.9,51.4,39.6,52.6z"/>
		<path class="st3" d="M32.5,70.6c-0.6,0.5-0.6,0.5-0.8,0.3c-0.6-0.5-0.6-1.3-1.1-1.8c-0.1-0.1-0.2-0.1-0.2-0.1c0-0.2,0-0.4,0.2-0.6
			C31.8,68.6,30.8,71,32.5,70.6z"/>
		<path class="st3" d="M30.4,71.2c0.8-0.6,0.1-1.3,0-2c0,0,0,0,0,0c0.1-0.1,0.1,0,0.2,0C30.9,69.9,31.7,70.7,30.4,71.2z"/>
		<path class="st3" d="M32.6,70.6c1.4,1.9,2.8,3.8,4.2,5.7h0c-0.3,0.1-0.6,0.3-0.9,0.4h0c-2.8-0.8-4.3-3-5.5-5.5c0,0,0,0,0.1,0
			c1.4-0.5,0.6-1.3,0.2-2c0-0.1-0.1-0.1-0.2,0c0,0,0,0,0,0c0,0,0,0,0,0c0.1,0,0.2-0.1,0.2,0.1c0.5,0.5,0.5,1.3,1.1,1.8
			C31.9,71.1,31.9,71.1,32.6,70.6C32.5,70.6,32.5,70.6,32.6,70.6C32.5,70.6,32.5,70.6,32.6,70.6z"/>
		<path class="st3" d="M31.5,60.5c0.4-0.7,0.5-0.4,0.6,0.1c0,0,0,0,0,0c-0.7,0.3-0.6,1-0.8,1.5c-0.2,0.5-0.3,1.2-1,1
			c-0.8-0.2-0.8-0.9-0.6-1.5c0.2-0.6,0.5-1.3,0.3-2c1.2,1-0.5,2.1,0.4,3.3C31.1,62.3,31,61.3,31.5,60.5z"/>
		<path class="st3" d="M30.3,71.2c-1.9-3.8-2-7.6-0.4-11.5c0.3,0.7-0.1,1.3-0.3,2c-0.2,0.6-0.2,1.3,0.6,1.5c0.8,0.2,0.8-0.5,1-1
			c0.2-0.5,0.1-1.3,0.8-1.5c-1.1,3.4-1.3,6.7,0.5,9.9l0,0c0,0,0,0,0,0c-1.8,0.4-0.7-2-2-2.1c-0.2,0.2-0.2,0.4-0.2,0.6
			c-0.1,0-0.1,0.1,0,0C30.4,69.8,31.1,70.6,30.3,71.2C30.3,71.2,30.3,71.2,30.3,71.2z"/>
		<path class="st3" d="M22.7,77.8c2.4,2.1,4.6,4.5,7.7,5.8c1.8,0.8,3.6,1.2,5.5,1.3c3.4,0.2,6.9,0.4,10.3,0.6c0.4,0,0.7,0.1,0.9,0.4
			h0c-0.1,0.1-0.3,0.2-0.4,0.3c0,0-0.1,0.1-0.1,0.1h0c-3.4,0.3-6.6,1.5-10.1,1.3h0h0c-1,0-1.9,0-2.9,0h0c-4.9,0.1-9-2-11.9-5.5
			c-8.4-10.1-7.3-20.9,1.1-30.7c4.8-5.6,10.7-10,17.1-13.9c9.5-5.8,19.6-10.4,29.7-15.2c3.5-1.7,7.1-3.2,10.6-4.9
			c0.4-0.2,0.8-0.4,1.3-0.1c-1.4,2.8-3.8,4.6-6.5,5.9c-5,2.4-9.7,5.2-14.5,7.9c-9.4,5.3-18.5,11-27.6,16.7
			c-4.4,2.7-7.5,6.5-10.4,10.6c-0.1-0.4-0.2-1.1-0.6-0.2c-2.9,6.3-3.5,12.5,0,18.8C21.9,77.5,21.9,78.5,22.7,77.8z"/>
		<path class="st3" d="M22.3,58.6c-2.5,6.3-3.1,12.5,0.1,18.7c0.1,0.2,0.2,0.3,0.4,0.5c-1.1-0.5-1.3-1.6-1.6-2.5
			c-2-4.8-1.7-9.7,0-14.5C21.4,60,21.1,58.9,22.3,58.6C22.3,58.5,22.3,58.5,22.3,58.6z"/>
		<path class="st3" d="M22.3,58.5c-1.2,0.3-0.9,1.5-1.2,2.2c-1.8,4.8-2,9.7,0,14.5c0.4,0.9,0.5,2.1,1.6,2.5
			c-0.9,0.7-0.9-0.3-1.1-0.6c-3.5-6.3-2.8-12.6,0-18.8C22.1,57.5,22.2,58.2,22.3,58.5z"/>
	</g>
</g>
</svg>
